<?xml version="1.0" encoding="us-ascii" standalone="no"?><svg xmlns="http://www.w3.org/2000/svg" xmlns:xlink="http://www.w3.org/1999/xlink" contentStyleType="text/css" height="792px" preserveAspectRatio="none" style="width:589px;height:792px;background:#FFFFFF;" version="1.1" viewBox="0 0 589 792" width="589px" zoomAndPan="magnify"><defs/><g><text fill="#000000" font-family="sans-serif" font-size="14" font-weight="bold" lengthAdjust="spacing" textLength="265" x="155" y="24.5332">Approval Workflow Tables (Simplified)</text><!--class Workflow--><g id="elem_Workflow"><rect codeLine="4" fill="#F1F1F1" height="224.0938" id="Workflow" rx="2.5" ry="2.5" style="stroke:#181818;stroke-width:0.5;" width="338" x="170" y="45.6094"/><ellipse cx="276.25" cy="61.6094" fill="#ADD1B2" rx="11" ry="11" style="stroke:#181818;stroke-width:1.0;"/><path d="M275.1094,62.4063 L275.1094,64.9063 L279.4375,64.9063 L279.4375,63.9844 Q279.4375,63.375 279.6719,63.1094 Q279.9219,62.8438 280.2969,62.8438 Q280.6719,62.8438 280.9063,63.1094 Q281.1406,63.375 281.1406,63.9844 L281.1406,66.6094 L273.1406,66.6094 Q272.5156,66.6094 272.25,66.375 Q272,66.1406 272,65.75 Q272,65.375 272.2656,65.1406 Q272.5313,64.9063 273.1406,64.9063 L273.4063,64.9063 L273.4063,58.25 L273.1406,58.25 Q272.5156,58.25 272.25,58.0156 Q272,57.7813 272,57.3906 Q272,57.0156 272.25,56.7813 Q272.5156,56.5469 273.1406,56.5469 L280.7656,56.5469 L280.7656,59.1406 Q280.7656,59.75 280.5313,60.0156 Q280.3125,60.2656 279.9219,60.2656 Q279.5469,60.2656 279.3125,60.0156 Q279.0781,59.75 279.0781,59.1406 L279.0781,58.25 L275.1094,58.25 L275.1094,60.7031 L276.5938,60.7031 Q276.5938,60.0469 276.7188,59.8594 Q276.9844,59.4531 277.4531,59.4531 Q277.8281,59.4531 278.0625,59.7188 Q278.2969,59.9688 278.2969,60.5781 L278.2969,62.5469 Q278.2969,63.0938 278.1719,63.2813 Q277.9063,63.6719 277.4531,63.6719 Q276.9844,63.6719 276.7188,63.2656 Q276.5938,63.0781 276.5938,62.4063 L275.1094,62.4063 Z " fill="#000000"/><text fill="#000000" font-family="sans-serif" font-size="14" lengthAdjust="spacing" textLength="117" x="296.75" y="67.3379">Approval Workflow</text><line style="stroke:#181818;stroke-width:0.5;" x1="171" x2="507" y1="77.6094" y2="77.6094"/><ellipse cx="181" cy="91.9141" fill="#000000" rx="3" ry="3" style="stroke:#000000;stroke-width:1.0;"/><text fill="#000000" font-family="sans-serif" font-size="14" lengthAdjust="spacing" textLength="164" x="190" y="96.1426">WorkflowID : Integer &#171;PK&#187;</text><line style="stroke:#181818;stroke-width:1.0;" x1="171" x2="507" y1="103.2188" y2="103.2188"/><text fill="#000000" font-family="sans-serif" font-size="14" lengthAdjust="spacing" textLength="285" x="176" y="121.752">DocumentType : Enum("Approval Doc Type")</text><text fill="#000000" font-family="sans-serif" font-size="14" lengthAdjust="spacing" textLength="151" x="176" y="139.3613">DocumentNo : Code[20]</text><text fill="#000000" font-family="sans-serif" font-size="14" lengthAdjust="spacing" textLength="158" x="176" y="156.9707">InitiatorUserID : Code[50]</text><text fill="#000000" font-family="sans-serif" font-size="14" lengthAdjust="spacing" textLength="188" x="176" y="174.5801">CreationDateTime : DateTime</text><text fill="#000000" font-family="sans-serif" font-size="14" lengthAdjust="spacing" textLength="197" x="176" y="192.1895">CurrentStepSequence : Integer</text><text fill="#000000" font-family="sans-serif" font-size="14" lengthAdjust="spacing" textLength="326" x="176" y="209.7988">WorkflowStatus : Enum("Approval Workflow Status")</text><text fill="#000000" font-family="sans-serif" font-size="14" lengthAdjust="spacing" textLength="142" x="176" y="227.4082">TotalAmount : Decimal</text><text fill="#000000" font-family="sans-serif" font-size="14" lengthAdjust="spacing" textLength="98" x="176" y="245.0176">DueDate : Date</text><text fill="#000000" font-family="sans-serif" font-size="14" lengthAdjust="spacing" textLength="196" x="176" y="262.627">ApprovalEntryID : Integer &#171;FK&#187;</text></g><!--class Step--><g id="elem_Step"><rect codeLine="18" fill="#F1F1F1" height="188.875" id="Step" rx="2.5" ry="2.5" style="stroke:#181818;stroke-width:0.5;" width="253" x="113.5" y="347.6094"/><ellipse cx="160.75" cy="363.6094" fill="#ADD1B2" rx="11" ry="11" style="stroke:#181818;stroke-width:1.0;"/><path d="M159.6094,364.4063 L159.6094,366.9063 L163.9375,366.9063 L163.9375,365.9844 Q163.9375,365.375 164.1719,365.1094 Q164.4219,364.8438 164.7969,364.8438 Q165.1719,364.8438 165.4063,365.1094 Q165.6406,365.375 165.6406,365.9844 L165.6406,368.6094 L157.6406,368.6094 Q157.0156,368.6094 156.75,368.375 Q156.5,368.1406 156.5,367.75 Q156.5,367.375 156.7656,367.1406 Q157.0313,366.9063 157.6406,366.9063 L157.9063,366.9063 L157.9063,360.25 L157.6406,360.25 Q157.0156,360.25 156.75,360.0156 Q156.5,359.7813 156.5,359.3906 Q156.5,359.0156 156.75,358.7813 Q157.0156,358.5469 157.6406,358.5469 L165.2656,358.5469 L165.2656,361.1406 Q165.2656,361.75 165.0313,362.0156 Q164.8125,362.2656 164.4219,362.2656 Q164.0469,362.2656 163.8125,362.0156 Q163.5781,361.75 163.5781,361.1406 L163.5781,360.25 L159.6094,360.25 L159.6094,362.7031 L161.0938,362.7031 Q161.0938,362.0469 161.2188,361.8594 Q161.4844,361.4531 161.9531,361.4531 Q162.3281,361.4531 162.5625,361.7188 Q162.7969,361.9688 162.7969,362.5781 L162.7969,364.5469 Q162.7969,365.0938 162.6719,365.2813 Q162.4063,365.6719 161.9531,365.6719 Q161.4844,365.6719 161.2188,365.2656 Q161.0938,365.0781 161.0938,364.4063 L159.6094,364.4063 Z " fill="#000000"/><text fill="#000000" font-family="sans-serif" font-size="14" lengthAdjust="spacing" textLength="150" x="181.25" y="369.3379">Approval Workflow Step</text><line style="stroke:#181818;stroke-width:0.5;" x1="114.5" x2="365.5" y1="379.6094" y2="379.6094"/><ellipse cx="124.5" cy="393.9141" fill="#000000" rx="3" ry="3" style="stroke:#000000;stroke-width:1.0;"/><text fill="#000000" font-family="sans-serif" font-size="14" lengthAdjust="spacing" textLength="136" x="133.5" y="398.1426">StepID : Integer &#171;PK&#187;</text><line style="stroke:#181818;stroke-width:1.0;" x1="114.5" x2="365.5" y1="405.2188" y2="405.2188"/><text fill="#000000" font-family="sans-serif" font-size="14" lengthAdjust="spacing" textLength="164" x="119.5" y="423.752">WorkflowID : Integer &#171;FK&#187;</text><text fill="#000000" font-family="sans-serif" font-size="14" lengthAdjust="spacing" textLength="137" x="119.5" y="441.3613">SequenceNo : Integer</text><text fill="#000000" font-family="sans-serif" font-size="14" lengthAdjust="spacing" textLength="141" x="119.5" y="458.9707">ApproverID : Code[50]</text><text fill="#000000" font-family="sans-serif" font-size="14" lengthAdjust="spacing" textLength="192" x="119.5" y="476.5801">ConditionMinAmount : Decimal</text><text fill="#000000" font-family="sans-serif" font-size="14" lengthAdjust="spacing" textLength="241" x="119.5" y="494.1895">Status : Enum("Approval Step Status")</text><text fill="#000000" font-family="sans-serif" font-size="14" lengthAdjust="spacing" textLength="173" x="119.5" y="511.7988">ActionDateTime : DateTime</text><text fill="#000000" font-family="sans-serif" font-size="14" lengthAdjust="spacing" textLength="196" x="119.5" y="529.4082">ApprovalEntryID : Integer &#171;FK&#187;</text></g><!--class Log--><g id="elem_Log"><rect codeLine="30" fill="#F1F1F1" height="171.2656" id="Log" rx="2.5" ry="2.5" style="stroke:#181818;stroke-width:0.5;" width="262" x="280" y="614.6094"/><ellipse cx="334.25" cy="630.6094" fill="#ADD1B2" rx="11" ry="11" style="stroke:#181818;stroke-width:1.0;"/><path d="M333.1094,631.4063 L333.1094,633.9063 L337.4375,633.9063 L337.4375,632.9844 Q337.4375,632.375 337.6719,632.1094 Q337.9219,631.8438 338.2969,631.8438 Q338.6719,631.8438 338.9063,632.1094 Q339.1406,632.375 339.1406,632.9844 L339.1406,635.6094 L331.1406,635.6094 Q330.5156,635.6094 330.25,635.375 Q330,635.1406 330,634.75 Q330,634.375 330.2656,634.1406 Q330.5313,633.9063 331.1406,633.9063 L331.4063,633.9063 L331.4063,627.25 L331.1406,627.25 Q330.5156,627.25 330.25,627.0156 Q330,626.7813 330,626.3906 Q330,626.0156 330.25,625.7813 Q330.5156,625.5469 331.1406,625.5469 L338.7656,625.5469 L338.7656,628.1406 Q338.7656,628.75 338.5313,629.0156 Q338.3125,629.2656 337.9219,629.2656 Q337.5469,629.2656 337.3125,629.0156 Q337.0781,628.75 337.0781,628.1406 L337.0781,627.25 L333.1094,627.25 L333.1094,629.7031 L334.5938,629.7031 Q334.5938,629.0469 334.7188,628.8594 Q334.9844,628.4531 335.4531,628.4531 Q335.8281,628.4531 336.0625,628.7188 Q336.2969,628.9688 336.2969,629.5781 L336.2969,631.5469 Q336.2969,632.0938 336.1719,632.2813 Q335.9063,632.6719 335.4531,632.6719 Q334.9844,632.6719 334.7188,632.2656 Q334.5938,632.0781 334.5938,631.4063 L333.1094,631.4063 Z " fill="#000000"/><text fill="#000000" font-family="sans-serif" font-size="14" lengthAdjust="spacing" textLength="145" x="354.75" y="636.3379">Approval Workflow Log</text><line style="stroke:#181818;stroke-width:0.5;" x1="281" x2="541" y1="646.6094" y2="646.6094"/><ellipse cx="291" cy="660.9141" fill="#000000" rx="3" ry="3" style="stroke:#000000;stroke-width:1.0;"/><text fill="#000000" font-family="sans-serif" font-size="14" lengthAdjust="spacing" textLength="164" x="300" y="665.1426">LogEntryID : Integer &#171;PK&#187;</text><line style="stroke:#181818;stroke-width:1.0;" x1="281" x2="541" y1="672.2188" y2="672.2188"/><text fill="#000000" font-family="sans-serif" font-size="14" lengthAdjust="spacing" textLength="164" x="286" y="690.752">WorkflowID : Integer &#171;FK&#187;</text><text fill="#000000" font-family="sans-serif" font-size="14" lengthAdjust="spacing" textLength="136" x="286" y="708.3613">StepID : Integer &#171;FK&#187;</text><text fill="#000000" font-family="sans-serif" font-size="14" lengthAdjust="spacing" textLength="250" x="286" y="725.9707">Action : Enum("Approval Action Taken")</text><text fill="#000000" font-family="sans-serif" font-size="14" lengthAdjust="spacing" textLength="116" x="286" y="743.5801">ActorID : Code[50]</text><text fill="#000000" font-family="sans-serif" font-size="14" lengthAdjust="spacing" textLength="134" x="286" y="761.1895">DateTime : DateTime</text><text fill="#000000" font-family="sans-serif" font-size="14" lengthAdjust="spacing" textLength="138" x="286" y="778.7988">Comments : Text[250]</text></g><!--class Template--><g id="elem_Template"><rect codeLine="41" fill="#F1F1F1" height="136.0469" id="Template" rx="2.5" ry="2.5" style="stroke:#181818;stroke-width:0.5;" width="212" x="7" y="632.1094"/><ellipse cx="22" cy="648.1094" fill="#ADD1B2" rx="11" ry="11" style="stroke:#181818;stroke-width:1.0;"/><path d="M20.8594,648.9063 L20.8594,651.4063 L25.1875,651.4063 L25.1875,650.4844 Q25.1875,649.875 25.4219,649.6094 Q25.6719,649.3438 26.0469,649.3438 Q26.4219,649.3438 26.6563,649.6094 Q26.8906,649.875 26.8906,650.4844 L26.8906,653.1094 L18.8906,653.1094 Q18.2656,653.1094 18,652.875 Q17.75,652.6406 17.75,652.25 Q17.75,651.875 18.0156,651.6406 Q18.2813,651.4063 18.8906,651.4063 L19.1563,651.4063 L19.1563,644.75 L18.8906,644.75 Q18.2656,644.75 18,644.5156 Q17.75,644.2813 17.75,643.8906 Q17.75,643.5156 18,643.2813 Q18.2656,643.0469 18.8906,643.0469 L26.5156,643.0469 L26.5156,645.6406 Q26.5156,646.25 26.2813,646.5156 Q26.0625,646.7656 25.6719,646.7656 Q25.2969,646.7656 25.0625,646.5156 Q24.8281,646.25 24.8281,645.6406 L24.8281,644.75 L20.8594,644.75 L20.8594,647.2031 L22.3438,647.2031 Q22.3438,646.5469 22.4688,646.3594 Q22.7344,645.9531 23.2031,645.9531 Q23.5781,645.9531 23.8125,646.2188 Q24.0469,646.4688 24.0469,647.0781 L24.0469,649.0469 Q24.0469,649.5938 23.9219,649.7813 Q23.6563,650.1719 23.2031,650.1719 Q22.7344,650.1719 22.4688,649.7656 Q22.3438,649.5781 22.3438,648.9063 L20.8594,648.9063 Z " fill="#000000"/><text fill="#000000" font-family="sans-serif" font-size="14" lengthAdjust="spacing" textLength="180" x="36" y="653.8379">Approval Workflow Template</text><line style="stroke:#181818;stroke-width:0.5;" x1="8" x2="218" y1="664.1094" y2="664.1094"/><ellipse cx="18" cy="678.4141" fill="#000000" rx="3" ry="3" style="stroke:#000000;stroke-width:1.0;"/><text fill="#000000" font-family="sans-serif" font-size="14" lengthAdjust="spacing" textLength="166" x="27" y="682.6426">TemplateID : Integer &#171;PK&#187;</text><line style="stroke:#181818;stroke-width:1.0;" x1="8" x2="218" y1="689.7188" y2="689.7188"/><text fill="#000000" font-family="sans-serif" font-size="14" lengthAdjust="spacing" textLength="137" x="13" y="708.252">SequenceNo : Integer</text><text fill="#000000" font-family="sans-serif" font-size="14" lengthAdjust="spacing" textLength="141" x="13" y="725.8613">ApproverID : Code[50]</text><text fill="#000000" font-family="sans-serif" font-size="14" lengthAdjust="spacing" textLength="192" x="13" y="743.4707">ConditionMinAmount : Decimal</text><text fill="#000000" font-family="sans-serif" font-size="14" lengthAdjust="spacing" textLength="112" x="13" y="761.0801">IsActive : Boolean</text></g><!--link Workflow to Step--><g id="link_Workflow_Step"><path codeLine="50" d="M264.6426,276.9961 C260.0626,286.8661 259.33,289.6394 256,299.6094 C250.95,314.7294 250.1109,313.4201 247.6709,329.6201 " fill="none" id="Workflow-Step" style="stroke:#181818;stroke-width:1.0;"/><line style="stroke:#181818;stroke-width:1.0;" x1="262.6979" x2="269.9547" y1="271.6841" y2="275.0515"/><line style="stroke:#181818;stroke-width:1.0;" x1="261.4352" x2="268.6919" y1="274.4054" y2="277.7727"/><line style="stroke:#181818;stroke-width:1.0;" x1="264.6426" x2="268.01" y1="276.9961" y2="269.7394"/><line style="stroke:#181818;stroke-width:1.0;" x1="246.1815" x2="250.9231" y1="339.5086" y2="348.313"/><line style="stroke:#181818;stroke-width:1.0;" x1="246.1815" x2="239.0569" y1="339.5086" y2="346.5258"/><line style="stroke:#181818;stroke-width:1.0;" x1="246.1815" x2="244.99" y1="339.5086" y2="347.4194"/><ellipse cx="247.0751" cy="333.5755" fill="none" rx="4" ry="4" style="stroke:#181818;stroke-width:1.0;"/><text fill="#000000" font-family="sans-serif" font-size="13" lengthAdjust="spacing" textLength="153" x="257" y="314.1045">1 Workflow &#8594; Many Steps</text></g><!--link Workflow to Log--><g id="link_Workflow_Log"><path codeLine="51" d="M408.1333,277.1503 C412.0733,287.0303 412.48,289.6294 415,299.6094 C441.73,405.5294 436.2015,514.4684 426.3415,596.3684 " fill="none" id="Workflow-Log" style="stroke:#181818;stroke-width:1.0;"/><line style="stroke:#181818;stroke-width:1.0;" x1="402.9362" x2="410.3671" y1="274.9165" y2="271.9532"/><line style="stroke:#181818;stroke-width:1.0;" x1="404.0475" x2="411.4784" y1="277.7031" y2="274.7398"/><line style="stroke:#181818;stroke-width:1.0;" x1="408.1333" x2="405.17" y1="277.1503" y2="269.7194"/><line style="stroke:#181818;stroke-width:1.0;" x1="425.1462" x2="430.147" y1="606.2967" y2="614.9565"/><line style="stroke:#181818;stroke-width:1.0;" x1="425.1462" x2="418.233" y1="606.2967" y2="613.5222"/><line style="stroke:#181818;stroke-width:1.0;" x1="425.1462" x2="424.19" y1="606.2967" y2="614.2394"/><ellipse cx="425.8634" cy="600.3397" fill="none" rx="4" ry="4" style="stroke:#181818;stroke-width:1.0;"/><text fill="#000000" font-family="sans-serif" font-size="13" lengthAdjust="spacing" textLength="147" x="434" y="447.6045">1 Workflow &#8594; Many Logs</text></g><!--link Step to Log--><g id="link_Step_Log"><path codeLine="52" d="M267.2738,544.2131 C273.6238,560.8431 278.56,570.0194 288,584.6094 C294.65,594.8994 290.5628,591.3641 298.9228,600.8841 " fill="none" id="Step-Log" style="stroke:#181818;stroke-width:1.0;"/><line style="stroke:#181818;stroke-width:1.0;" x1="262.11" x2="269.5837" y1="541.9031" y2="539.0493"/><line style="stroke:#181818;stroke-width:1.0;" x1="263.1802" x2="270.6539" y1="544.7057" y2="541.852"/><line style="stroke:#181818;stroke-width:1.0;" x1="267.2738" x2="264.42" y1="544.2131" y2="536.7394"/><line style="stroke:#181818;stroke-width:1.0;" x1="305.5212" x2="315.3084" y1="608.3982" y2="610.4503"/><line style="stroke:#181818;stroke-width:1.0;" x1="305.5212" x2="306.2916" y1="608.3982" y2="618.3684"/><line style="stroke:#181818;stroke-width:1.0;" x1="305.5212" x2="310.8" y1="608.3982" y2="614.4094"/><ellipse cx="301.5622" cy="603.8897" fill="none" rx="4" ry="4" style="stroke:#181818;stroke-width:1.0;"/><text fill="#000000" font-family="sans-serif" font-size="13" lengthAdjust="spacing" textLength="121" x="289" y="581.1045">1 Step &#8594; Many Logs</text></g><!--link Step to Template--><g id="link_Step_Template"><path codeLine="53" d="M122.4094,543.2788 C115.6794,552.6988 114.48,556.1694 110,566.6094 C101.33,586.7994 99.1175,602.3811 100.2875,623.9911 " fill="none" id="Step-Template" style="stroke:#181818;stroke-width:1.0;"/><line style="stroke:#181818;stroke-width:1.0;" x1="122.4094" x2="120.5506" y1="543.2788" y2="536.7694"/><line style="stroke:#181818;stroke-width:1.0;" x1="122.4094" x2="133.5694" y1="543.2788" y2="536.7694"/><line style="stroke:#181818;stroke-width:1.0;" x1="122.4094" x2="127.06" y1="543.2788" y2="536.7694"/><line style="stroke:#181818;stroke-width:1.0;" x1="104.4979" x2="96.5096" y1="627.769" y2="628.2015"/><line style="stroke:#181818;stroke-width:1.0;" x1="104.3357" x2="96.3474" y1="624.7734" y2="625.2059"/><line style="stroke:#181818;stroke-width:1.0;" x1="100.2875" x2="100.72" y1="623.9911" y2="631.9794"/><text fill="#000000" font-family="sans-serif" font-size="13" lengthAdjust="spacing" textLength="136" x="111" y="581.1045">Uses configuration from</text></g><!--SRC=[hPJFQjj04CRlVef1fwGWI0sv61DmunXCcr2mIW-XXuqyDaka7NMrScliNFi0VSG-IMTM_q9a2KAYWxMxtypiVBzToscN8CoopD9E9V2TxECceLyGgOS4SpXRwJHBz4RZ-dmqGkEqsqFG2Gz0vMtkOGJmePakvp21fN6uHGlJwTVFLrUiXo7_p2akKYuQxJFae1jJf6TjSLP1bE3yMUWTSU0rhV5-VF63rvT6EwqSsMyvMh-L5o-zU6rHEKrchXn6EfKzwg6eXRLSSUKmM-7F0asCRQUirmPMJhaYx_RN-2q3V9iHEPNCKYgCayqmrgbAfFq2PUUg0Lw0XlcDSNR_0j9283qD00VfsbENGKLSXWEqUmvaKORK23pW5aAvymcqPDPQsDvgSy9l7pFVxJDUixZ_VDu6w0jjFHz-LtXuTAhKAn1r-LPAQQDhjrgFr2EQsYzrMFPSJqhbmWl427-x-x443rgEaF-hNC3xhYUL-NewOFvzRy0o5_CxCVM9A45bfFccr-Cn3EbGtWTv9X1yR9ty-_CNRfNPUpqFEcbog4Dfh7DMK_nabbVxCfx2y7Xi6Ke6Vs1oYCbizBQm_hC26qjfCFeF]--></g></svg>