<?xml version="1.0" encoding="us-ascii" standalone="no"?><svg xmlns="http://www.w3.org/2000/svg" xmlns:xlink="http://www.w3.org/1999/xlink" contentStyleType="text/css" height="1007px" preserveAspectRatio="none" style="width:1169px;height:1007px;background:#FFFFFF;" version="1.1" viewBox="0 0 1169 1007" width="1169px" zoomAndPan="magnify"><defs/><g><text fill="#000000" font-family="sans-serif" font-size="14" font-weight="bold" lengthAdjust="spacing" textLength="358" x="398.5" y="24.5332">Simplified Multi-Level Purchase Approval Workflow</text><!--entity submit--><g id="elem_submit"><rect fill="#F1F1F1" height="47.6094" rx="2.5" ry="2.5" style="stroke:#181818;stroke-width:0.5;" width="151" x="812.5" y="45.6094"/><rect fill="#F1F1F1" height="10" style="stroke:#181818;stroke-width:0.5;" width="15" x="943.5" y="50.6094"/><rect fill="#F1F1F1" height="2" style="stroke:#181818;stroke-width:0.5;" width="4" x="941.5" y="52.6094"/><rect fill="#F1F1F1" height="2" style="stroke:#181818;stroke-width:0.5;" width="4" x="941.5" y="56.6094"/><text fill="#000000" font-family="sans-serif" font-size="14" lengthAdjust="spacing" textLength="111" x="827.5" y="80.1426">Submit Document</text></g><!--entity validate--><g id="elem_validate"><rect fill="#F1F1F1" height="47.6094" rx="2.5" ry="2.5" style="stroke:#181818;stroke-width:0.5;" width="148" x="814" y="171.6094"/><rect fill="#F1F1F1" height="10" style="stroke:#181818;stroke-width:0.5;" width="15" x="942" y="176.6094"/><rect fill="#F1F1F1" height="2" style="stroke:#181818;stroke-width:0.5;" width="4" x="940" y="178.6094"/><rect fill="#F1F1F1" height="2" style="stroke:#181818;stroke-width:0.5;" width="4" x="940" y="182.6094"/><text fill="#000000" font-family="sans-serif" font-size="14" lengthAdjust="spacing" textLength="108" x="829" y="206.1426">Validate Request</text></g><!--entity create_workflow--><g id="elem_create_workflow"><rect fill="#F1F1F1" height="47.6094" rx="2.5" ry="2.5" style="stroke:#181818;stroke-width:0.5;" width="144" x="816" y="297.6094"/><rect fill="#F1F1F1" height="10" style="stroke:#181818;stroke-width:0.5;" width="15" x="940" y="302.6094"/><rect fill="#F1F1F1" height="2" style="stroke:#181818;stroke-width:0.5;" width="4" x="938" y="304.6094"/><rect fill="#F1F1F1" height="2" style="stroke:#181818;stroke-width:0.5;" width="4" x="938" y="308.6094"/><text fill="#000000" font-family="sans-serif" font-size="14" lengthAdjust="spacing" textLength="104" x="831" y="332.1426">Create Workflow</text></g><!--entity build_steps--><g id="elem_build_steps"><rect fill="#F1F1F1" height="47.6094" rx="2.5" ry="2.5" style="stroke:#181818;stroke-width:0.5;" width="111" x="679.5" y="423.6094"/><rect fill="#F1F1F1" height="10" style="stroke:#181818;stroke-width:0.5;" width="15" x="770.5" y="428.6094"/><rect fill="#F1F1F1" height="2" style="stroke:#181818;stroke-width:0.5;" width="4" x="768.5" y="430.6094"/><rect fill="#F1F1F1" height="2" style="stroke:#181818;stroke-width:0.5;" width="4" x="768.5" y="434.6094"/><text fill="#000000" font-family="sans-serif" font-size="14" lengthAdjust="spacing" textLength="71" x="694.5" y="458.1426">Build Steps</text></g><!--entity activate_step--><g id="elem_activate_step"><rect fill="#F1F1F1" height="47.6094" rx="2.5" ry="2.5" style="stroke:#181818;stroke-width:0.5;" width="123" x="481.5" y="549.6094"/><rect fill="#F1F1F1" height="10" style="stroke:#181818;stroke-width:0.5;" width="15" x="584.5" y="554.6094"/><rect fill="#F1F1F1" height="2" style="stroke:#181818;stroke-width:0.5;" width="4" x="582.5" y="556.6094"/><rect fill="#F1F1F1" height="2" style="stroke:#181818;stroke-width:0.5;" width="4" x="582.5" y="560.6094"/><text fill="#000000" font-family="sans-serif" font-size="14" lengthAdjust="spacing" textLength="83" x="496.5" y="584.1426">Activate Step</text></g><!--entity approval_decision--><g id="elem_approval_decision"><rect fill="#F1F1F1" height="47.6094" rx="2.5" ry="2.5" style="stroke:#181818;stroke-width:0.5;" width="154" x="359" y="691.6094"/><rect fill="#F1F1F1" height="10" style="stroke:#181818;stroke-width:0.5;" width="15" x="493" y="696.6094"/><rect fill="#F1F1F1" height="2" style="stroke:#181818;stroke-width:0.5;" width="4" x="491" y="698.6094"/><rect fill="#F1F1F1" height="2" style="stroke:#181818;stroke-width:0.5;" width="4" x="491" y="702.6094"/><text fill="#000000" font-family="sans-serif" font-size="14" lengthAdjust="spacing" textLength="114" x="374" y="726.1426">Approval Decision</text></g><!--entity finalize_approval--><g id="elem_finalize_approval"><rect fill="#F1F1F1" height="47.6094" rx="2.5" ry="2.5" style="stroke:#181818;stroke-width:0.5;" width="148" x="59" y="817.6094"/><rect fill="#F1F1F1" height="10" style="stroke:#181818;stroke-width:0.5;" width="15" x="187" y="822.6094"/><rect fill="#F1F1F1" height="2" style="stroke:#181818;stroke-width:0.5;" width="4" x="185" y="824.6094"/><rect fill="#F1F1F1" height="2" style="stroke:#181818;stroke-width:0.5;" width="4" x="185" y="828.6094"/><text fill="#000000" font-family="sans-serif" font-size="14" lengthAdjust="spacing" textLength="108" x="74" y="852.1426">Finalize Approval</text></g><!--entity handle_rejection--><g id="elem_handle_rejection"><rect fill="#F1F1F1" height="47.6094" rx="2.5" ry="2.5" style="stroke:#181818;stroke-width:0.5;" width="147" x="382.5" y="817.6094"/><rect fill="#F1F1F1" height="10" style="stroke:#181818;stroke-width:0.5;" width="15" x="509.5" y="822.6094"/><rect fill="#F1F1F1" height="2" style="stroke:#181818;stroke-width:0.5;" width="4" x="507.5" y="824.6094"/><rect fill="#F1F1F1" height="2" style="stroke:#181818;stroke-width:0.5;" width="4" x="507.5" y="828.6094"/><text fill="#000000" font-family="sans-serif" font-size="14" lengthAdjust="spacing" textLength="107" x="397.5" y="852.1426">Handle Rejection</text></g><!--entity doc_db--><g id="elem_doc_db"><path d="M66,953.6094 C66,943.6094 133,943.6094 133,943.6094 C133,943.6094 200,943.6094 200,953.6094 L200,980.2188 C200,990.2188 133,990.2188 133,990.2188 C133,990.2188 66,990.2188 66,980.2188 L66,953.6094 " fill="#F1F1F1" style="stroke:#181818;stroke-width:0.5;"/><path d="M66,953.6094 C66,963.6094 133,963.6094 133,963.6094 C133,963.6094 200,963.6094 200,953.6094 " fill="none" style="stroke:#181818;stroke-width:0.5;"/><text fill="#000000" font-family="sans-serif" font-size="14" lengthAdjust="spacing" textLength="114" x="76" y="982.1426">Document Header</text></g><!--entity template_db--><g id="elem_template_db"><path d="M640,560.1094 C640,550.1094 710,550.1094 710,550.1094 C710,550.1094 780,550.1094 780,560.1094 L780,586.7188 C780,596.7188 710,596.7188 710,596.7188 C710,596.7188 640,596.7188 640,586.7188 L640,560.1094 " fill="#F1F1F1" style="stroke:#181818;stroke-width:0.5;"/><path d="M640,560.1094 C640,570.1094 710,570.1094 710,570.1094 C710,570.1094 780,570.1094 780,560.1094 " fill="none" style="stroke:#181818;stroke-width:0.5;"/><text fill="#000000" font-family="sans-serif" font-size="14" lengthAdjust="spacing" textLength="120" x="650" y="588.6426">Workflow Template</text></g><!--entity workflow_db--><g id="elem_workflow_db"><path d="M888.5,953.6094 C888.5,943.6094 957,943.6094 957,943.6094 C957,943.6094 1025.5,943.6094 1025.5,953.6094 L1025.5,980.2188 C1025.5,990.2188 957,990.2188 957,990.2188 C957,990.2188 888.5,990.2188 888.5,980.2188 L888.5,953.6094 " fill="#F1F1F1" style="stroke:#181818;stroke-width:0.5;"/><path d="M888.5,953.6094 C888.5,963.6094 957,963.6094 957,963.6094 C957,963.6094 1025.5,963.6094 1025.5,953.6094 " fill="none" style="stroke:#181818;stroke-width:0.5;"/><text fill="#000000" font-family="sans-serif" font-size="14" lengthAdjust="spacing" textLength="117" x="898.5" y="982.1426">Approval Workflow</text></g><!--entity step_db--><g id="elem_step_db"><path d="M631,828.1094 C631,818.1094 686,818.1094 686,818.1094 C686,818.1094 741,818.1094 741,828.1094 L741,854.7188 C741,864.7188 686,864.7188 686,864.7188 C686,864.7188 631,864.7188 631,854.7188 L631,828.1094 " fill="#F1F1F1" style="stroke:#181818;stroke-width:0.5;"/><path d="M631,828.1094 C631,838.1094 686,838.1094 686,838.1094 C686,838.1094 741,838.1094 741,828.1094 " fill="none" style="stroke:#181818;stroke-width:0.5;"/><text fill="#000000" font-family="sans-serif" font-size="14" lengthAdjust="spacing" textLength="90" x="641" y="856.6426">Workflow Step</text></g><!--entity log_db--><g id="elem_log_db"><path d="M242.5,828.1094 C242.5,818.1094 295,818.1094 295,818.1094 C295,818.1094 347.5,818.1094 347.5,828.1094 L347.5,854.7188 C347.5,864.7188 295,864.7188 295,864.7188 C295,864.7188 242.5,864.7188 242.5,854.7188 L242.5,828.1094 " fill="#F1F1F1" style="stroke:#181818;stroke-width:0.5;"/><path d="M242.5,828.1094 C242.5,838.1094 295,838.1094 295,838.1094 C295,838.1094 347.5,838.1094 347.5,828.1094 " fill="none" style="stroke:#181818;stroke-width:0.5;"/><text fill="#000000" font-family="sans-serif" font-size="14" lengthAdjust="spacing" textLength="85" x="252.5" y="856.6426">Workflow Log</text></g><!--link submit to validate--><g id="link_submit_validate"><path d="M888,93.6394 C888,115.7794 888,143.0494 888,165.2794 " fill="none" id="submit-to-validate" style="stroke:#181818;stroke-width:1.0;"/><polygon fill="#181818" points="888,171.2794,892,162.2794,888,166.2794,884,162.2794,888,171.2794" style="stroke:#181818;stroke-width:1.0;"/><text fill="#000000" font-family="sans-serif" font-size="13" lengthAdjust="spacing" textLength="53" x="889" y="138.1045">1. Initiate</text></g><!--link validate to doc_db--><g id="link_validate_doc_db"><path d="M813.94,199.2694 C601.63,207.8794 6,239.2794 6,320.6094 C6,320.6094 6,320.6094 6,842.6094 C6,888.4294 43.819,919.7578 79.789,940.4478 " fill="none" id="validate-to-doc_db" style="stroke:#181818;stroke-width:1.0;"/><polygon fill="#181818" points="84.99,943.4394,79.1829,935.4846,80.6558,940.9464,75.1941,942.4193,84.99,943.4394" style="stroke:#181818;stroke-width:1.0;"/><text fill="#000000" font-family="sans-serif" font-size="13" lengthAdjust="spacing" textLength="92" x="7" y="579.1045">2. Check status</text></g><!--link validate to workflow_db--><g id="link_validate_workflow_db"><path d="M955.04,219.7594 C997.71,239.2294 1045,271.8094 1045,320.6094 C1045,320.6094 1045,320.6094 1045,842.6094 C1045,883.9394 1016.4067,917.0684 990.8067,939.5684 " fill="none" id="validate-to-workflow_db" style="stroke:#181818;stroke-width:1.0;"/><polygon fill="#181818" points="986.3,943.5294,995.7007,940.5924,990.0556,940.2286,990.4194,934.5834,986.3,943.5294" style="stroke:#181818;stroke-width:1.0;"/><text fill="#000000" font-family="sans-serif" font-size="13" lengthAdjust="spacing" textLength="115" x="1046" y="579.1045">3. Check duplicates</text></g><!--link validate to create_workflow--><g id="link_validate_create_workflow"><path d="M888,219.6394 C888,241.7794 888,269.0494 888,291.2794 " fill="none" id="validate-to-create_workflow" style="stroke:#181818;stroke-width:1.0;"/><polygon fill="#181818" points="888,297.2794,892,288.2794,888,292.2794,884,288.2794,888,297.2794" style="stroke:#181818;stroke-width:1.0;"/><text fill="#000000" font-family="sans-serif" font-size="13" lengthAdjust="spacing" textLength="106" x="889" y="264.1045">4. Create workflow</text></g><!--link create_workflow to workflow_db--><g id="link_create_workflow_workflow_db"><path d="M911.75,345.8494 C919.68,354.5894 928.01,364.9994 934,375.6094 C950.31,404.4894 957,413.4394 957,446.6094 C957,446.6094 957,446.6094 957,842.6094 C957,877.7694 957,912.5694 957,937.3494 " fill="none" id="create_workflow-to-workflow_db" style="stroke:#181818;stroke-width:1.0;"/><polygon fill="#181818" points="957,943.3494,961,934.3494,957,938.3494,953,934.3494,957,943.3494" style="stroke:#181818;stroke-width:1.0;"/><text fill="#000000" font-family="sans-serif" font-size="13" lengthAdjust="spacing" textLength="46" x="958" y="650.1045">5. Store</text></g><!--link create_workflow to build_steps--><g id="link_create_workflow_build_steps"><path d="M859.58,345.6394 C832.19,367.8494 795.6214,397.4816 768.1914,419.7116 " fill="none" id="create_workflow-to-build_steps" style="stroke:#181818;stroke-width:1.0;"/><polygon fill="#181818" points="763.53,423.4894,773.0406,420.9304,767.4145,420.3413,768.0036,414.7152,763.53,423.4894" style="stroke:#181818;stroke-width:1.0;"/><text fill="#000000" font-family="sans-serif" font-size="13" lengthAdjust="spacing" textLength="104" x="821" y="390.1045">6. Generate steps</text></g><!--link build_steps to template_db--><g id="link_build_steps_template_db"><path d="M720.26,471.6894 C715.34,480.6694 710.48,491.2694 708,501.6094 C704.2,517.4394 704.2065,529.854 705.7265,543.944 " fill="none" id="build_steps-to-template_db" style="stroke:#181818;stroke-width:1.0;"/><polygon fill="#181818" points="706.37,549.9094,709.3816,540.5323,705.8337,544.9382,701.4278,541.3903,706.37,549.9094" style="stroke:#181818;stroke-width:1.0;"/><text fill="#000000" font-family="sans-serif" font-size="13" lengthAdjust="spacing" textLength="97" x="709" y="516.1045">7. Get templates</text></g><!--link build_steps to step_db--><g id="link_build_steps_step_db"><path d="M782.96,471.7394 C794.17,479.5694 804.67,489.4894 811,501.6094 C817.44,513.9594 859.31,590.9294 788,739.6094 C772.48,771.9694 746.8961,796.2086 723.3261,814.4386 " fill="none" id="build_steps-to-step_db" style="stroke:#181818;stroke-width:1.0;"/><polygon fill="#181818" points="718.58,818.1094,728.1463,815.7672,722.5351,815.0504,723.2519,809.4391,718.58,818.1094" style="stroke:#181818;stroke-width:1.0;"/><text fill="#000000" font-family="sans-serif" font-size="13" lengthAdjust="spacing" textLength="82" x="825" y="650.1045">8. Store steps</text></g><!--link build_steps to activate_step--><g id="link_build_steps_activate_step"><path d="M679.19,462.6394 C652.86,471.0694 622.03,483.6994 598,501.6094 C580.75,514.4694 569.3404,529.0332 559.5204,544.4032 " fill="none" id="build_steps-to-activate_step" style="stroke:#181818;stroke-width:1.0;"/><polygon fill="#181818" points="556.29,549.4594,564.5064,544.0288,558.982,545.2459,557.7648,539.7216,556.29,549.4594" style="stroke:#181818;stroke-width:1.0;"/><text fill="#000000" font-family="sans-serif" font-size="13" lengthAdjust="spacing" textLength="97" x="599" y="516.1045">9. Start first step</text></g><!--link activate_step to step_db--><g id="link_activate_step_step_db"><path d="M604.73,595.0694 C620.3,602.9694 635.54,613.5794 646,627.6094 C689.06,685.3794 690.3971,769.9178 688.1771,811.8678 " fill="none" id="activate_step-to-step_db" style="stroke:#181818;stroke-width:1.0;"/><polygon fill="#181818" points="687.86,817.8594,692.33,809.0833,688.1242,812.8664,684.3412,808.6606,687.86,817.8594" style="stroke:#181818;stroke-width:1.0;"/><text fill="#000000" font-family="sans-serif" font-size="13" lengthAdjust="spacing" textLength="93" x="686" y="721.1045">10. Set Pending</text></g><!--link activate_step to approval_decision--><g id="link_activate_step_approval_decision"><path d="M541.85,597.6694 C539.89,616.4594 534.68,642.8594 521,661.6094 C512.18,673.6894 504.7983,680.476 492.0983,688.356 " fill="none" id="activate_step-to-approval_decision" style="stroke:#181818;stroke-width:1.0;"/><polygon fill="#181818" points="487,691.5194,496.7564,690.1732,491.2486,688.8832,492.5386,683.3754,487,691.5194" style="stroke:#181818;stroke-width:1.0;"/><text fill="#000000" font-family="sans-serif" font-size="13" lengthAdjust="spacing" textLength="99" x="538" y="650.1045">11. Send request</text></g><!--link approval_decision to activate_step--><g id="link_approval_decision_activate_step"><path d="M426.87,691.3194 C421.16,672.6394 416.94,646.5194 429,627.6094 C440.86,609.0194 455.5151,599.0423 475.6851,591.1223 " fill="none" id="approval_decision-to-activate_step" style="stroke:#181818;stroke-width:1.0;"/><polygon fill="#181818" points="481.27,588.9294,471.4307,588.4956,476.6159,590.7569,474.3547,595.9421,481.27,588.9294" style="stroke:#181818;stroke-width:1.0;"/><text fill="#000000" font-family="sans-serif" font-size="13" lengthAdjust="spacing" textLength="82" x="430" y="642.1045">14a. Approved</text><text fill="#000000" font-family="sans-serif" font-size="13" lengthAdjust="spacing" textLength="62" x="440" y="658.4561">(next step)</text></g><!--link activate_step to approval_decision--><g id="link_activate_step_approval_decision"><path d="M481.47,584.4694 C456.15,591.8894 429.23,604.8794 414,627.6094 C401.16,646.7594 407.6394,667.5861 417.8194,686.1861 " fill="none" id="activate_step-to-approval_decision-1" style="stroke:#181818;stroke-width:1.0;"/><polygon fill="#181818" points="420.7,691.4494,419.8879,681.6341,418.2995,687.0633,412.8702,685.4749,420.7,691.4494" style="stroke:#181818;stroke-width:1.0;"/></g><!--link approval_decision to step_db--><g id="link_approval_decision_step_db"><path d="M471.39,739.6794 C494.65,754.3394 526.02,773.2094 555,787.6094 C579.39,799.7294 601.6575,809.1259 625.4075,818.3559 " fill="none" id="approval_decision-to-step_db" style="stroke:#181818;stroke-width:1.0;"/><polygon fill="#181818" points="631,820.5294,624.0602,813.5409,626.3396,818.7182,621.1623,820.9976,631,820.5294" style="stroke:#181818;stroke-width:1.0;"/><text fill="#000000" font-family="sans-serif" font-size="13" lengthAdjust="spacing" textLength="103" x="556" y="784.1045">12. Update status</text></g><!--link approval_decision to log_db--><g id="link_approval_decision_log_db"><path d="M360.68,739.7394 C345.31,747.2694 330.37,757.0494 319,769.6094 C306.86,783.0194 301.9785,796.9103 298.9985,812.1903 " fill="none" id="approval_decision-to-log_db" style="stroke:#181818;stroke-width:1.0;"/><polygon fill="#181818" points="297.85,818.0794,303.4988,810.0115,298.8071,813.1718,295.6467,808.4801,297.85,818.0794" style="stroke:#181818;stroke-width:1.0;"/><text fill="#000000" font-family="sans-serif" font-size="13" lengthAdjust="spacing" textLength="102" x="320" y="784.1045">13. Record action</text></g><!--link approval_decision to finalize_approval--><g id="link_approval_decision_finalize_approval"><path d="M358.96,719.9294 C307.8,725.1894 240.92,738.1594 190,769.6094 C171.04,781.3194 158.8569,796.5857 148.8769,812.5057 " fill="none" id="approval_decision-to-finalize_approval" style="stroke:#181818;stroke-width:1.0;"/><polygon fill="#181818" points="145.69,817.5894,153.8594,812.0884,148.3457,813.353,147.0812,807.8393,145.69,817.5894" style="stroke:#181818;stroke-width:1.0;"/><text fill="#000000" font-family="sans-serif" font-size="13" lengthAdjust="spacing" textLength="108" x="191" y="784.1045">14b. Final approval</text></g><!--link finalize_approval to doc_db--><g id="link_finalize_approval_doc_db"><path d="M133,865.8394 C133,888.0594 133,915.3594 133,937.3994 " fill="none" id="finalize_approval-to-doc_db" style="stroke:#181818;stroke-width:1.0;"/><polygon fill="#181818" points="133,943.3994,137,934.3994,133,938.3994,129,934.3994,133,943.3994" style="stroke:#181818;stroke-width:1.0;"/><text fill="#000000" font-family="sans-serif" font-size="13" lengthAdjust="spacing" textLength="130" x="134" y="910.1045">15. Release document</text></g><!--link approval_decision to handle_rejection--><g id="link_approval_decision_handle_rejection"><path d="M432.17,739.8694 C430.56,753.8394 429.74,771.9094 433,787.6094 C435.12,797.8194 436.7668,803.055 441.0068,812.115 " fill="none" id="approval_decision-to-handle_rejection" style="stroke:#181818;stroke-width:1.0;"/><polygon fill="#181818" points="443.55,817.5494,443.3581,807.7024,441.4306,813.0208,436.1123,811.0934,443.55,817.5494" style="stroke:#181818;stroke-width:1.0;"/><text fill="#000000" font-family="sans-serif" font-size="13" lengthAdjust="spacing" textLength="80" x="434" y="784.1045">14c. Rejected</text></g><!--link handle_rejection to doc_db--><g id="link_handle_rejection_doc_db"><path d="M397.14,865.6394 C361.29,879.6194 314.55,897.7594 273,913.6094 C247.05,923.5094 223.9499,932.2079 199.3199,941.4179 " fill="none" id="handle_rejection-to-doc_db" style="stroke:#181818;stroke-width:1.0;"/><polygon fill="#181818" points="193.7,943.5194,203.5309,944.1138,198.3833,941.7681,200.7289,936.6205,193.7,943.5194" style="stroke:#181818;stroke-width:1.0;"/><text fill="#000000" font-family="sans-serif" font-size="13" lengthAdjust="spacing" textLength="120" x="320" y="910.1045">16. Reject document</text></g><!--link handle_rejection to workflow_db--><g id="link_handle_rejection_workflow_db"><path d="M529.66,860.7694 C626.21,884.5694 788.4943,924.5736 882.5043,947.7436 " fill="none" id="handle_rejection-to-workflow_db" style="stroke:#181818;stroke-width:1.0;"/><polygon fill="#181818" points="888.33,949.1794,880.5487,943.1419,883.4753,947.9829,878.6343,950.9094,888.33,949.1794" style="stroke:#181818;stroke-width:1.0;"/><text fill="#000000" font-family="sans-serif" font-size="13" lengthAdjust="spacing" textLength="103" x="737" y="910.1045">17. Update status</text></g><!--SRC=[ZPJBRjGm58RtVWehArXCHA0NO85KMa6HYbHrk6oG8ezzPiOqOmV7cIAU7XzVWdCPYMLElj-_pyrMsWReMXxQHcub2FgvRwnStS4H6dhV6xvd7T2hjZNwo1hwNPl7RQEV2E7wq6e5oj9YtMyEqj8RpVk32nIKTRJpiPpwnXefc0Nw0Bzww09sZC4Sl3Q0MBBo7FUn-YdPP_ZxNZQ2hYsqdKSt-5rt-9rZLzpA8vwBf0TPZ7XsXAPiRu3BJceLy1YjHOpcaWzIkKp-_AkKbsnZj4xQN7BBb6Ym6Z_1NIIQx7smDYb8YAiEss0FYbHVUWjCWF6yqBmMcmnALQDVmBNKPUSn6p_6xAohdaqrFd7kK3wisWdcJkyyqkWT4YGC0rsjtWqDfszfKPNqav9MuYt9y0Efa1OoBqjwlGV-wEoOxRi9bzqLuLS95hqRP-ue9nWh9eE4gZEd2YENeWMPOWjcvwMhXJRkwejqDeP8NvJq8oWmQEE31Sa9L6HDGiKbAkmGNH343Y3yEbucdJrZHyEEYZUeOCQw8JMTzRg2ZAc9H_N2IToDxa49gNPBz6n7lAv2dHBKnCKdPCvDlLpVlxOYL2iqVbaJHinBNFSVW6iZVB9keKxvp6fHdR4oRYw87-gPWj-X8iyB-ZzPdZAQxNymsvJKlnV3GGMPa-CrgCunkGPmpqHwPq_PJX-HuChB-DQ0ACWCcTXT93XpMzHCbgAwdFNjBm00]--></g></svg>