<?xml version="1.0" encoding="us-ascii" standalone="no"?><svg xmlns="http://www.w3.org/2000/svg" xmlns:xlink="http://www.w3.org/1999/xlink" contentStyleType="text/css" height="517px" preserveAspectRatio="none" style="width:463px;height:517px;background:#FFFFFF;" version="1.1" viewBox="0 0 463 517" width="463px" zoomAndPan="magnify"><defs/><g><text fill="#000000" font-family="sans-serif" font-size="14" font-weight="bold" lengthAdjust="spacing" textLength="254" x="97.705" y="24.5332">Approval Workflow State Transitions</text><g id="Draft"><rect fill="#F1F1F1" height="50" rx="12.5" ry="12.5" style="stroke:#181818;stroke-width:0.5;" width="51" x="194.91" y="45.6094"/><line style="stroke:#181818;stroke-width:0.5;" x1="194.91" x2="245.91" y1="73.2188" y2="73.2188"/><text fill="#000000" font-family="sans-serif" font-size="14" lengthAdjust="spacing" textLength="31" x="204.91" y="65.1426">Draft</text></g><g id="Pending"><rect fill="#F1F1F1" height="50" rx="12.5" ry="12.5" style="stroke:#181818;stroke-width:0.5;" width="72" x="184.41" y="173.6094"/><line style="stroke:#181818;stroke-width:0.5;" x1="184.41" x2="256.41" y1="201.2188" y2="201.2188"/><text fill="#000000" font-family="sans-serif" font-size="14" lengthAdjust="spacing" textLength="52" x="194.41" y="193.1426">Pending</text></g><g id="elem_decision"><polygon fill="#F1F1F1" points="96.41,330.6094,108.41,342.6094,96.41,354.6094,84.41,342.6094,96.41,330.6094" style="stroke:#181818;stroke-width:0.5;"/></g><g id="Approved"><rect fill="#F1F1F1" height="50" rx="12.5" ry="12.5" style="stroke:#181818;stroke-width:0.5;" width="81" x="55.91" y="461.6094"/><line style="stroke:#181818;stroke-width:0.5;" x1="55.91" x2="136.91" y1="489.2188" y2="489.2188"/><text fill="#000000" font-family="sans-serif" font-size="14" lengthAdjust="spacing" textLength="61" x="65.91" y="481.1426">Approved</text></g><g id="Rejected"><rect fill="#F1F1F1" height="50" rx="12.5" ry="12.5" style="stroke:#181818;stroke-width:0.5;" width="76" x="319.41" y="317.6094"/><line style="stroke:#181818;stroke-width:0.5;" x1="319.41" x2="395.41" y1="345.2188" y2="345.2188"/><text fill="#000000" font-family="sans-serif" font-size="14" lengthAdjust="spacing" textLength="56" x="329.41" y="337.1426">Rejected</text></g><!--link Draft to Pending--><g id="link_Draft_Pending"><path d="M220.41,95.8994 C220.41,118.2194 220.41,145.0994 220.41,167.3894 " fill="none" id="Draft-to-Pending" style="stroke:#181818;stroke-width:1.0;"/><polygon fill="#181818" points="220.41,173.3894,224.41,164.3894,220.41,168.3894,216.41,164.3894,220.41,173.3894" style="stroke:#181818;stroke-width:1.0;"/><text fill="#000000" font-family="sans-serif" font-size="13" lengthAdjust="spacing" textLength="41" x="221.41" y="140.1045">Submit</text></g><!--link Pending to decision--><g id="link_Pending_decision"><path d="M184.2,204.6794 C134.43,212.4794 48.91,229.1194 30.41,253.6094 C6,285.9194 62.0766,322.072 83.8666,334.582 " fill="none" id="Pending-to-decision" style="stroke:#181818;stroke-width:1.0;"/><polygon fill="#181818" points="89.07,337.5694,83.2564,329.6194,84.7338,335.0799,79.2733,336.5573,89.07,337.5694" style="stroke:#181818;stroke-width:1.0;"/><text fill="#000000" font-family="sans-serif" font-size="13" lengthAdjust="spacing" textLength="84" x="31.41" y="276.1045">Step Approved</text></g><!--link decision to Pending--><g id="link_decision_Pending"><path d="M100.47,334.2894 C109.4,318.5694 131.88,280.7894 156.41,253.6094 C165.95,243.0294 172.9359,236.4506 183.6359,227.6506 " fill="none" id="decision-to-Pending" style="stroke:#181818;stroke-width:1.0;"/><polygon fill="#181818" points="188.27,223.8394,178.7781,226.4668,184.4083,227.0154,183.8597,232.6456,188.27,223.8394" style="stroke:#181818;stroke-width:1.0;"/><text fill="#000000" font-family="sans-serif" font-size="13" lengthAdjust="spacing" textLength="23" x="186.41" y="268.1045">Yes</text><text fill="#000000" font-family="sans-serif" font-size="13" lengthAdjust="spacing" textLength="81" x="157.41" y="284.4561">(activate next)</text></g><!--link decision to Approved--><g id="link_decision_Approved"><path d="M96.41,354.7494 C96.41,377.6394 96.41,424.3794 96.41,455.4694 " fill="none" id="decision-to-Approved" style="stroke:#181818;stroke-width:1.0;"/><polygon fill="#181818" points="96.41,461.4694,100.41,452.4694,96.41,456.4694,92.41,452.4694,96.41,461.4694" style="stroke:#181818;stroke-width:1.0;"/><text fill="#000000" font-family="sans-serif" font-size="13" lengthAdjust="spacing" textLength="16" x="119.41" y="412.1045">No</text><text fill="#000000" font-family="sans-serif" font-size="13" lengthAdjust="spacing" textLength="60" x="97.41" y="428.4561">(final step)</text></g><!--link Pending to Rejected--><g id="link_Pending_Rejected"><path d="M233.29,223.7894 C244.02,242.5494 260.56,268.4794 279.41,287.6094 C291.08,299.4594 300.674,307.0619 314.084,315.9219 " fill="none" id="Pending-to-Rejected" style="stroke:#181818;stroke-width:1.0;"/><polygon fill="#181818" points="319.09,319.2294,313.7859,310.9308,314.9183,316.4731,309.3759,317.6055,319.09,319.2294" style="stroke:#181818;stroke-width:1.0;"/><text fill="#000000" font-family="sans-serif" font-size="13" lengthAdjust="spacing" textLength="109" x="280.41" y="276.1045">Any Step Rejected</text></g><!--link Rejected to Pending--><g id="link_Rejected_Pending"><path d="M380.28,317.2394 C394.9,298.6194 408.66,272.9594 394.41,253.6094 C362.8,210.6994 303.4149,201.1279 262.4049,199.4279 " fill="none" id="Rejected-to-Pending" style="stroke:#181818;stroke-width:1.0;"/><polygon fill="#181818" points="256.41,199.1794,265.2366,203.5487,261.4057,199.3865,265.5679,195.5556,256.41,199.1794" style="stroke:#181818;stroke-width:1.0;"/><text fill="#000000" font-family="sans-serif" font-size="13" lengthAdjust="spacing" textLength="55" x="400.41" y="276.1045">Resubmit</text></g><!--SRC=[LP3F2i8m3CRlUuhWHNVO2yYO25uLcO88NcgNQNIseubJtzwwVz9Ra-_Bzqig91N2igwTRLG51-lkPMLVi1Cb27kd39EGDHn5tBPMJfNIlxTe2ZANlfgihKC_Y3Kl9g0O2jJ4VXRIL5yjQSootjhniEZB76-enPVHD42sB4YIR23177RFyuCa6Xe_SUJCM_e_VHJ2Y2FooSoK5cf-T8DlYKFlaE3D6-kz9Hd_EUp3uu0yBEvzI_FfwECnenZIS-JkX2y0]--></g></svg>